<mxfile host="Electron" agent="Mozilla/5.0 (Windows NT 10.0; Win64; x64) AppleWebKit/537.36 (KHTML, like Gecko) draw.io/24.7.17 Chrome/128.0.6613.36 Electron/32.0.1 Safari/537.36" version="24.7.17">
  <diagram name="第 1 页" id="3s3nY5zSuLLjrDdPR6IR">
    <mxGraphModel dx="1235" dy="740" grid="1" gridSize="10" guides="1" tooltips="1" connect="1" arrows="1" fold="1" page="1" pageScale="1" pageWidth="827" pageHeight="1169" math="0" shadow="0">
      <root>
        <mxCell id="0" />
        <mxCell id="1" parent="0" />
        <mxCell id="E7wAtnlL14xrydbBy7-P-29" value="" style="rounded=0;whiteSpace=wrap;html=1;" parent="1" vertex="1">
          <mxGeometry x="123" y="174" width="557" height="656" as="geometry" />
        </mxCell>
        <mxCell id="tfRQFl-lhjoeYOYTHlaU-202" style="rounded=0;orthogonalLoop=1;jettySize=auto;html=1;entryX=0;entryY=0.5;entryDx=0;entryDy=0;elbow=vertical;" parent="1" edge="1">
          <mxGeometry relative="1" as="geometry">
            <mxPoint x="239.00000000000023" y="252" as="targetPoint" />
            <mxPoint x="78.68305084745771" y="436.5" as="sourcePoint" />
          </mxGeometry>
        </mxCell>
        <mxCell id="tfRQFl-lhjoeYOYTHlaU-203" style="rounded=0;orthogonalLoop=1;jettySize=auto;html=1;entryX=0;entryY=0.5;entryDx=0;entryDy=0;" parent="1" edge="1">
          <mxGeometry relative="1" as="geometry">
            <mxPoint x="240" y="450.5" as="targetPoint" />
            <mxPoint x="83.49999999999977" y="468.92367399741283" as="sourcePoint" />
          </mxGeometry>
        </mxCell>
        <mxCell id="tfRQFl-lhjoeYOYTHlaU-204" style="rounded=0;orthogonalLoop=1;jettySize=auto;html=1;entryX=0;entryY=0.5;entryDx=0;entryDy=0;" parent="1" edge="1" target="E7wAtnlL14xrydbBy7-P-4">
          <mxGeometry relative="1" as="geometry">
            <mxPoint x="240" y="744.0000000000002" as="targetPoint" />
            <mxPoint x="72.98060941828248" y="510" as="sourcePoint" />
          </mxGeometry>
        </mxCell>
        <mxCell id="E7wAtnlL14xrydbBy7-P-27" style="rounded=0;orthogonalLoop=1;jettySize=auto;html=1;entryX=0;entryY=0.5;entryDx=0;entryDy=0;" parent="1" source="E7wAtnlL14xrydbBy7-P-2" target="E7wAtnlL14xrydbBy7-P-20" edge="1">
          <mxGeometry relative="1" as="geometry" />
        </mxCell>
        <mxCell id="E7wAtnlL14xrydbBy7-P-28" style="rounded=0;orthogonalLoop=1;jettySize=auto;html=1;entryX=0;entryY=0.5;entryDx=0;entryDy=0;" parent="1" source="E7wAtnlL14xrydbBy7-P-2" target="E7wAtnlL14xrydbBy7-P-19" edge="1">
          <mxGeometry relative="1" as="geometry" />
        </mxCell>
        <mxCell id="E7wAtnlL14xrydbBy7-P-2" value="用户管理" style="ellipse;whiteSpace=wrap;html=1;" parent="1" vertex="1">
          <mxGeometry x="240" y="210" width="120" height="80" as="geometry" />
        </mxCell>
        <mxCell id="E7wAtnlL14xrydbBy7-P-22" style="rounded=0;orthogonalLoop=1;jettySize=auto;html=1;entryX=0;entryY=0.5;entryDx=0;entryDy=0;" parent="1" source="E7wAtnlL14xrydbBy7-P-3" target="E7wAtnlL14xrydbBy7-P-18" edge="1">
          <mxGeometry relative="1" as="geometry" />
        </mxCell>
        <mxCell id="E7wAtnlL14xrydbBy7-P-23" style="rounded=0;orthogonalLoop=1;jettySize=auto;html=1;entryX=0;entryY=0.5;entryDx=0;entryDy=0;" parent="1" source="E7wAtnlL14xrydbBy7-P-3" target="E7wAtnlL14xrydbBy7-P-17" edge="1">
          <mxGeometry relative="1" as="geometry" />
        </mxCell>
        <mxCell id="E7wAtnlL14xrydbBy7-P-24" style="rounded=0;orthogonalLoop=1;jettySize=auto;html=1;entryX=0;entryY=0.5;entryDx=0;entryDy=0;" parent="1" source="E7wAtnlL14xrydbBy7-P-3" target="E7wAtnlL14xrydbBy7-P-16" edge="1">
          <mxGeometry relative="1" as="geometry" />
        </mxCell>
        <mxCell id="E7wAtnlL14xrydbBy7-P-25" style="rounded=0;orthogonalLoop=1;jettySize=auto;html=1;entryX=0;entryY=0.5;entryDx=0;entryDy=0;" parent="1" source="E7wAtnlL14xrydbBy7-P-3" target="E7wAtnlL14xrydbBy7-P-15" edge="1">
          <mxGeometry relative="1" as="geometry" />
        </mxCell>
        <mxCell id="E7wAtnlL14xrydbBy7-P-3" value="数据查询" style="ellipse;whiteSpace=wrap;html=1;" parent="1" vertex="1">
          <mxGeometry x="242.5" y="410" width="120" height="80" as="geometry" />
        </mxCell>
        <mxCell id="E7wAtnlL14xrydbBy7-P-7" style="rounded=0;orthogonalLoop=1;jettySize=auto;html=1;entryX=0;entryY=0.5;entryDx=0;entryDy=0;" parent="1" source="E7wAtnlL14xrydbBy7-P-4" target="E7wAtnlL14xrydbBy7-P-6" edge="1">
          <mxGeometry relative="1" as="geometry" />
        </mxCell>
        <mxCell id="E7wAtnlL14xrydbBy7-P-12" style="rounded=0;orthogonalLoop=1;jettySize=auto;html=1;entryX=0;entryY=0.5;entryDx=0;entryDy=0;" parent="1" source="E7wAtnlL14xrydbBy7-P-4" target="E7wAtnlL14xrydbBy7-P-8" edge="1">
          <mxGeometry relative="1" as="geometry" />
        </mxCell>
        <mxCell id="E7wAtnlL14xrydbBy7-P-13" style="rounded=0;orthogonalLoop=1;jettySize=auto;html=1;entryX=0;entryY=0.5;entryDx=0;entryDy=0;" parent="1" source="E7wAtnlL14xrydbBy7-P-4" target="E7wAtnlL14xrydbBy7-P-9" edge="1">
          <mxGeometry relative="1" as="geometry" />
        </mxCell>
        <mxCell id="VXUEJSNho0mXJRdNE4Rl-5" style="rounded=0;orthogonalLoop=1;jettySize=auto;html=1;entryX=0;entryY=0.5;entryDx=0;entryDy=0;" edge="1" parent="1" source="E7wAtnlL14xrydbBy7-P-4" target="VXUEJSNho0mXJRdNE4Rl-4">
          <mxGeometry relative="1" as="geometry" />
        </mxCell>
        <mxCell id="E7wAtnlL14xrydbBy7-P-4" value="远程控制" style="ellipse;whiteSpace=wrap;html=1;" parent="1" vertex="1">
          <mxGeometry x="242.5" y="620" width="120" height="80" as="geometry" />
        </mxCell>
        <mxCell id="E7wAtnlL14xrydbBy7-P-6" value="打开加湿器" style="ellipse;whiteSpace=wrap;html=1;" parent="1" vertex="1">
          <mxGeometry x="500" y="570" width="119" height="70" as="geometry" />
        </mxCell>
        <mxCell id="E7wAtnlL14xrydbBy7-P-8" value="打开风扇" style="ellipse;whiteSpace=wrap;html=1;" parent="1" vertex="1">
          <mxGeometry x="510" y="650" width="120" height="60" as="geometry" />
        </mxCell>
        <mxCell id="E7wAtnlL14xrydbBy7-P-9" value="打开补光灯" style="ellipse;whiteSpace=wrap;html=1;" parent="1" vertex="1">
          <mxGeometry x="504" y="720" width="132" height="50" as="geometry" />
        </mxCell>
        <mxCell id="E7wAtnlL14xrydbBy7-P-15" value="查看土壤湿度" style="ellipse;whiteSpace=wrap;html=1;" parent="1" vertex="1">
          <mxGeometry x="490" y="507" width="120" height="63" as="geometry" />
        </mxCell>
        <mxCell id="E7wAtnlL14xrydbBy7-P-16" value="查看光照情况" style="ellipse;whiteSpace=wrap;html=1;" parent="1" vertex="1">
          <mxGeometry x="485" y="436.5" width="130" height="63" as="geometry" />
        </mxCell>
        <mxCell id="E7wAtnlL14xrydbBy7-P-17" value="&lt;span style=&quot;color: rgb(0, 0, 0); font-family: Helvetica; font-size: 12px; font-style: normal; font-variant-ligatures: normal; font-variant-caps: normal; font-weight: 400; letter-spacing: normal; orphans: 2; text-align: center; text-indent: 0px; text-transform: none; widows: 2; word-spacing: 0px; -webkit-text-stroke-width: 0px; white-space: normal; background-color: rgb(251, 251, 251); text-decoration-thickness: initial; text-decoration-style: initial; text-decoration-color: initial; display: inline !important; float: none;&quot;&gt;查看二氧化碳浓度&lt;/span&gt;" style="ellipse;whiteSpace=wrap;html=1;" parent="1" vertex="1">
          <mxGeometry x="495" y="370" width="110" height="60" as="geometry" />
        </mxCell>
        <mxCell id="E7wAtnlL14xrydbBy7-P-18" value="查看环境温湿度" style="ellipse;whiteSpace=wrap;html=1;" parent="1" vertex="1">
          <mxGeometry x="490" y="304" width="120" height="62" as="geometry" />
        </mxCell>
        <mxCell id="E7wAtnlL14xrydbBy7-P-19" value="用户注册" style="ellipse;whiteSpace=wrap;html=1;" parent="1" vertex="1">
          <mxGeometry x="495" y="234" width="100" height="56" as="geometry" />
        </mxCell>
        <mxCell id="E7wAtnlL14xrydbBy7-P-20" value="用户登录" style="ellipse;whiteSpace=wrap;html=1;" parent="1" vertex="1">
          <mxGeometry x="495" y="174" width="100" height="50" as="geometry" />
        </mxCell>
        <mxCell id="VXUEJSNho0mXJRdNE4Rl-1" value="&lt;font style=&quot;font-size: 18px;&quot;&gt;&lt;b&gt;室内种植环境智能监测与调控系统的设计与实现&lt;/b&gt;&lt;/font&gt;" style="text;html=1;align=center;verticalAlign=middle;whiteSpace=wrap;rounded=0;" vertex="1" parent="1">
          <mxGeometry x="195" y="140" width="420" height="30" as="geometry" />
        </mxCell>
        <mxCell id="VXUEJSNho0mXJRdNE4Rl-3" value="Actor" style="shape=umlActor;verticalLabelPosition=bottom;verticalAlign=top;html=1;outlineConnect=0;" vertex="1" parent="1">
          <mxGeometry x="30" y="437" width="30" height="60" as="geometry" />
        </mxCell>
        <mxCell id="VXUEJSNho0mXJRdNE4Rl-4" value="打开水泵补水" style="ellipse;whiteSpace=wrap;html=1;" vertex="1" parent="1">
          <mxGeometry x="510" y="780" width="132" height="50" as="geometry" />
        </mxCell>
      </root>
    </mxGraphModel>
  </diagram>
</mxfile>
